<svg xmlns="http://www.w3.org/2000/svg" width="147" height="58" viewBox="0 0 147 58" fill="none">
  <g clip-path="url(#clip0_267_1371)">
    <path d="M54.7852 39.6754C52.4139 45.8417 47.9647 50.9869 42.2052 54.2233C36.4457 57.4597 29.7373 58.5843 23.2372 57.4031C16.7372 56.2219 10.8532 52.8089 6.60064 47.7531C2.34806 42.6973 -0.00641463 36.3157 -0.0566406 29.7094C-0.0528994 26.2617 0.588242 22.8444 1.83446 19.6298C2.36735 18.3227 2.99956 17.0582 3.72556 15.8476C6.10212 11.6593 9.50579 8.14492 13.616 5.63564L14.5615 5.08727C14.7512 5.02682 14.9487 4.99491 15.1478 4.99268C15.7162 4.99766 16.2598 5.22703 16.66 5.63079C17.0602 6.03456 17.2847 6.58005 17.2847 7.14856C17.2878 7.62849 17.1278 8.0952 16.8309 8.47229L15.9798 9.13419L14.7507 10.0987C9.74988 14.0084 6.42346 19.674 5.44641 25.9461C4.59177 30.3578 4.98905 34.9207 6.59325 39.1184C8.19746 43.3161 10.9446 46.981 14.5238 49.6983C17.8946 52.4669 22.0325 54.1366 26.3809 54.4828C29.9843 54.9157 33.6388 54.44 37.0113 53.0989C40.3837 51.7579 43.3669 49.5941 45.689 46.8049C48.383 43.7577 50.0503 39.9403 50.4546 35.8932C50.9595 32.5193 50.5423 29.0717 49.2472 25.9156C47.9521 22.7595 45.8275 20.0125 43.0982 17.9656C40.6454 15.9085 37.6621 14.5848 34.491 14.1466C31.3199 13.7084 28.0895 14.1734 25.1707 15.4883C22.5578 16.474 20.2596 18.1469 18.5187 20.3304C16.7778 22.514 15.6589 25.1271 15.2801 27.8939C14.7298 30.9601 15.1946 34.1222 16.6042 36.9002C18.0137 39.6783 20.291 41.9208 23.0904 43.2874C25.4367 44.4569 28.0907 44.8615 30.6789 44.4443C33.2672 44.027 35.6595 42.809 37.5195 40.9614C39.1058 39.371 40.1443 37.3166 40.4844 35.0962C40.8244 32.8758 40.4483 30.6048 39.4106 28.6125C38.567 26.9975 37.223 25.6991 35.5799 24.9116C33.9368 24.1241 32.0828 23.89 30.2955 24.2441C29.0513 24.4566 27.8982 25.0337 26.9825 25.9023C26.0667 26.771 25.4296 27.8919 25.1517 29.1231C24.8758 30.1308 24.9456 31.202 25.3502 32.1653C25.7547 33.1287 26.4705 33.9285 27.3832 34.4371C27.8048 34.6851 28.2818 34.8237 28.7706 34.8402C29.2595 34.8567 29.7446 34.7506 30.182 34.5316C30.525 34.4017 30.8188 34.1678 31.0223 33.8626C31.2257 33.5574 31.3287 33.1962 31.3167 32.8297C31.3299 32.7068 31.3172 32.5826 31.2797 32.4649C31.2421 32.3472 31.1804 32.2386 31.0986 32.1461C31.0167 32.0536 30.9165 31.9791 30.8043 31.9275C30.692 31.8759 30.5703 31.8482 30.4468 31.8463C30.2565 31.8225 30.0752 31.7507 29.9201 31.6378C29.765 31.525 29.6411 31.3746 29.5599 31.2009C29.4787 31.0271 29.4429 30.8356 29.4558 30.6442C29.4687 30.4528 29.5298 30.2678 29.6336 30.1065C29.8809 29.6837 30.2488 29.3444 30.6902 29.1322C31.1316 28.9199 31.6263 28.8443 32.111 28.9151C32.9112 29.0328 33.6576 29.3876 34.2543 29.9336C34.8509 30.4797 35.2702 31.192 35.4581 31.9787C35.7422 33.0578 35.7018 34.1966 35.3419 35.2528C34.982 36.309 34.3186 37.2356 33.4348 37.9167C32.211 38.8968 30.7128 39.4723 29.1476 39.5638C27.5824 39.6553 26.0275 39.2582 24.6979 38.4273C23.3606 37.6582 22.2428 36.5589 21.4515 35.2346C20.6602 33.9102 20.2218 32.4051 20.1781 30.863C20.0761 28.3317 20.8443 25.8419 22.3549 23.8083C23.8655 21.7746 26.0273 20.32 28.4801 19.6866C30.7132 19.0205 33.0868 18.984 35.3392 19.5813C37.5917 20.1787 39.6354 21.3865 41.245 23.0716C42.574 24.3356 43.6393 25.8504 44.3793 27.5285C45.1194 29.2067 45.5195 31.0149 45.5567 32.8486C45.6654 36.3458 44.6288 39.7827 42.6045 42.6366C40.5802 45.4904 37.679 47.6048 34.3424 48.6581C31.3614 49.6996 28.1531 49.9102 25.0615 49.2672C21.9699 48.6243 19.1116 47.152 16.793 45.0083C14.4972 43.0743 12.7008 40.616 11.5553 37.8412C10.4099 35.0665 9.94907 32.0567 10.212 29.0664C10.475 23.7233 12.8489 18.7034 16.8119 15.1101C20.3612 11.71 24.9791 9.64503 29.8795 9.26658C32.9837 8.95451 36.1189 9.28912 39.0873 10.2493C42.0557 11.2095 44.7929 12.7744 47.1263 14.8453C51.5636 18.5695 54.4667 23.8031 55.2769 29.5392C55.8274 32.949 55.6859 36.4348 54.8608 39.7889" fill="#1872E2"/>
    <path d="M23.1835 5.95696L20.8386 5.3329L19.0042 6.90251L18.8718 4.50082L16.8105 3.23378L19.061 2.36387L19.6283 0L21.1601 1.87219L23.5618 1.68308L22.2569 3.72546L23.1835 5.95696Z" fill="#FCA021"/>
    <path d="M63.2207 15.0151H66.4355V26.2671H73.3948V28.8958H63.2207V15.0151Z" fill="#04042B"/>
    <path d="M74.6055 15.0152C74.6099 14.7759 74.6633 14.5399 74.7621 14.3219C74.8609 14.1039 75.0032 13.9083 75.1803 13.7472C75.3573 13.5861 75.5653 13.4629 75.7917 13.385C76.018 13.3071 76.2579 13.2762 76.4966 13.2943C76.7312 13.2736 76.9676 13.3008 77.1914 13.3742C77.4152 13.4476 77.6218 13.5657 77.7987 13.7213C77.9755 13.8769 78.1188 14.0668 78.2201 14.2794C78.3213 14.4921 78.3783 14.7231 78.3877 14.9585C78.3882 15.2018 78.3387 15.4426 78.2423 15.666C78.146 15.8894 78.0049 16.0907 77.8276 16.2573C77.6504 16.424 77.4407 16.5524 77.2117 16.6348C76.9828 16.7171 76.7394 16.7517 76.4966 16.7361C76.2579 16.7542 76.018 16.7233 75.7917 16.6454C75.5653 16.5675 75.3573 16.4443 75.1803 16.2831C75.0032 16.122 74.8609 15.9265 74.7621 15.7084C74.6633 15.4904 74.6099 15.2545 74.6055 15.0152ZM74.9648 18.23H78.0662V28.8959H74.9648V18.23Z" fill="#04042B"/>
    <path d="M84.324 18.4579H87.0661V20.8407H84.3996V28.8968H81.3171V20.8407H79.6719V18.4579H81.3171V17.9852C81.2877 17.4428 81.3755 16.9006 81.5744 16.3952C81.7733 15.8897 82.0787 15.4331 82.4699 15.0563C82.861 14.6795 83.3287 14.3913 83.8412 14.2115C84.3537 14.0316 84.899 13.9642 85.4398 14.0139C86.2671 13.9844 87.0861 14.1875 87.8037 14.6001L86.9904 16.8316C86.6203 16.5861 86.1864 16.4546 85.7423 16.4534C84.8157 16.4534 84.324 16.964 84.324 18.0041V18.4579Z" fill="#04042B"/>
    <path d="M98.887 24.4331H90.812C90.9769 25.0964 91.3758 25.6778 91.9352 26.0704C92.4946 26.463 93.1769 26.6404 93.8566 26.5701C94.8512 26.5961 95.8161 26.2292 96.5421 25.5489L98.1873 27.3265C97.3483 28.124 96.3039 28.6723 95.1711 28.9103C94.0382 29.1483 92.8615 29.0665 91.7724 28.674C90.6834 28.2816 89.725 27.594 89.0043 26.6881C88.2837 25.7822 87.8293 24.6937 87.6918 23.5443C87.6834 22.8048 87.8257 22.0714 88.11 21.3887C88.3944 20.706 88.8148 20.0884 89.3457 19.5735C89.8765 19.0586 90.5066 18.6572 91.1976 18.3938C91.8887 18.1303 92.6262 18.0104 93.3651 18.0412C94.1043 18.0004 94.8437 18.1157 95.5355 18.3795C96.2272 18.6432 96.8558 19.0496 97.3802 19.5723C97.9046 20.0949 98.3131 20.7219 98.5792 21.4128C98.8453 22.1037 98.9632 22.8428 98.9249 23.5822C98.9438 23.828 98.9059 24.1684 98.887 24.4331ZM90.7741 22.542H96.0314C95.9513 21.9105 95.6364 21.3322 95.1494 20.9222C94.6623 20.5123 94.0388 20.3007 93.4028 20.3295C92.7539 20.2976 92.1179 20.518 91.6279 20.9445C91.1379 21.3711 90.832 21.9706 90.7741 22.6177V22.542Z" fill="#04042B"/>
    <path d="M118.858 20.046C118.858 23.1474 116.532 25.0574 112.825 25.0574H110.045V28.8396H106.906V14.959H112.901C116.532 15.0157 118.858 16.9446 118.858 20.046ZM115.605 20.046C115.605 18.5143 114.622 17.6254 112.655 17.6254H110.045V22.4477H112.58C114.622 22.4477 115.605 21.5589 115.605 20.046Z" fill="#04042B"/>
    <path d="M120.559 15.0155C120.566 14.7771 120.621 14.5424 120.721 14.3257C120.82 14.1089 120.963 13.9144 121.139 13.7538C121.316 13.5933 121.523 13.4699 121.748 13.391C121.973 13.3121 122.212 13.2793 122.45 13.2946C122.685 13.2712 122.922 13.2964 123.147 13.3687C123.372 13.4411 123.58 13.559 123.757 13.7151C123.935 13.8713 124.078 14.0622 124.179 14.2762C124.279 14.4902 124.334 14.7226 124.341 14.9588C124.341 15.4604 124.142 15.9413 123.787 16.296C123.432 16.6506 122.951 16.8499 122.45 16.8499C121.948 16.8499 121.467 16.6506 121.113 16.296C120.758 15.9413 120.559 15.4604 120.559 14.9588V15.0155ZM120.937 18.2304H124.019V28.8962H120.937V18.2304Z" fill="#04042B"/>
    <path d="M133.776 28.3666C133.029 28.8498 132.149 29.0878 131.26 29.0474C130.737 29.1203 130.205 29.0745 129.702 28.9133C129.199 28.7522 128.739 28.4798 128.355 28.1165C127.972 27.7532 127.675 27.3082 127.487 26.8146C127.3 26.321 127.225 25.7914 127.27 25.2652V20.8778H125.625V18.4951H127.27V15.9043H130.372V18.4951H133.019V20.8778H130.372V25.2274C130.345 25.4108 130.361 25.5977 130.417 25.7743C130.473 25.9508 130.568 26.1124 130.695 26.247C130.823 26.3816 130.979 26.4856 131.152 26.5514C131.325 26.6171 131.511 26.6429 131.695 26.6268C132.144 26.635 132.582 26.4955 132.944 26.2297L133.776 28.3666Z" fill="#04042B"/>
    <path d="M146.427 22.7878V28.8961H143.326V23.2228C143.326 21.5019 142.532 20.7076 141.17 20.7076C139.808 20.7076 138.617 21.6154 138.617 23.5821V28.8583H135.516V14.1455H138.617V19.2515C139.069 18.8269 139.601 18.4963 140.183 18.2788C140.764 18.0613 141.382 17.9612 142.002 17.9844C142.627 17.9439 143.253 18.0436 143.834 18.2763C144.416 18.509 144.938 18.8688 145.362 19.3294C145.786 19.7899 146.102 20.3395 146.286 20.9379C146.471 21.5363 146.519 22.1684 146.427 22.7878Z" fill="#04042B"/>
    <path d="M75.9478 35.5718V49.5092H73.3191L66.3977 41.0938V49.5092H63.2207V35.6285H65.8682L72.7707 44.0628V35.6285L75.9478 35.5718Z" fill="#04042B"/>
    <path d="M78.6328 35.5719C78.6399 35.3334 78.695 35.0987 78.7948 34.882C78.8945 34.6652 79.0368 34.4707 79.2133 34.3102C79.3897 34.1496 79.5967 34.0262 79.8219 33.9473C80.0471 33.8684 80.2858 33.8356 80.5239 33.8509C80.7585 33.8303 80.995 33.8575 81.2188 33.9309C81.4426 34.0043 81.6492 34.1224 81.826 34.278C82.0028 34.4336 82.1462 34.6234 82.2474 34.8361C82.3487 35.0487 82.4057 35.2798 82.415 35.5151C82.415 36.0167 82.2157 36.4977 81.8611 36.8523C81.5064 37.207 81.0255 37.4062 80.5239 37.4062C80.0224 37.4062 79.5414 37.207 79.1867 36.8523C78.8321 36.4977 78.6328 36.0167 78.6328 35.5151V35.5719ZM79.0111 38.7867H82.1125V49.5092H79.0111V38.7867Z" fill="#04042B"/>
    <path d="M95.975 38.7857V47.6172C95.975 51.5885 93.8381 53.4039 89.9992 53.4039C88.1404 53.4838 86.3048 52.9669 84.7608 51.9289L85.99 49.7163C87.0885 50.5146 88.4144 50.9389 89.7722 50.9266C91.9659 50.9266 92.9114 49.9432 92.9114 48.0143V47.6172C92.4759 48.0634 91.9508 48.4122 91.3705 48.6404C90.7902 48.8686 90.1681 48.9711 89.5453 48.941C88.8423 48.9836 88.138 48.8818 87.4758 48.6421C86.8135 48.4024 86.2074 48.0298 85.6946 47.5471C85.1817 47.0644 84.773 46.4818 84.4937 45.8353C84.2144 45.1888 84.0703 44.492 84.0703 43.7877C84.0703 43.0834 84.2144 42.3866 84.4937 41.74C84.773 41.0935 85.1817 40.511 85.6946 40.0283C86.2074 39.5456 86.8135 39.1729 87.4758 38.9332C88.138 38.6935 88.8423 38.5919 89.5453 38.6345C90.2106 38.5965 90.8755 38.7154 91.4865 38.9814C92.0975 39.2475 92.6373 39.6533 93.0627 40.1662V38.7857H95.975ZM92.9303 43.835C92.9683 43.2704 92.8355 42.7074 92.549 42.2194C92.2625 41.7314 91.8356 41.3409 91.3241 41.0989C90.8126 40.8568 90.2401 40.7745 89.681 40.8624C89.122 40.9504 88.6025 41.2046 88.19 41.592C87.7775 41.9794 87.4912 42.482 87.3684 43.0344C87.2456 43.5868 87.292 44.1634 87.5015 44.6891C87.711 45.2148 88.0739 45.6652 88.543 45.9817C89.0121 46.2982 89.5657 46.4662 90.1315 46.4636C90.4921 46.4927 90.8547 46.446 91.1961 46.3265C91.5375 46.207 91.85 46.0173 92.1136 45.7697C92.3772 45.5221 92.5862 45.222 92.7268 44.8888C92.8675 44.5556 92.9368 44.1966 92.9303 43.835Z" fill="#04042B"/>
    <path d="M109.248 44.9898H101.23C101.395 45.6546 101.793 46.238 102.352 46.6337C102.911 47.0294 103.593 47.2112 104.275 47.1457C104.77 47.1658 105.264 47.0838 105.726 46.9049C106.188 46.726 106.608 46.4539 106.96 46.1056L108.605 47.8833C107.769 48.6879 106.724 49.2425 105.589 49.4845C104.454 49.7265 103.274 49.6463 102.183 49.2529C101.091 48.8595 100.131 48.1685 99.411 47.2581C98.6913 46.3477 98.2406 45.2542 98.1097 44.1011C98.1013 43.3624 98.2437 42.6297 98.5283 41.948C98.8128 41.2663 99.2335 40.6499 99.7647 40.1365C100.296 39.623 100.926 39.2234 101.617 38.9621C102.308 38.7008 103.045 38.5833 103.783 38.6168C104.521 38.5763 105.258 38.6911 105.949 38.9537C106.639 39.2164 107.267 39.621 107.791 40.1415C108.315 40.6621 108.724 41.2869 108.991 41.9754C109.259 42.664 109.378 43.4011 109.343 44.1389C109.305 44.4036 109.267 44.744 109.248 44.9898ZM101.136 43.1933H106.393C106.313 42.5618 105.998 41.9835 105.511 41.5735C105.024 41.1636 104.4 40.9519 103.764 40.9807C103.143 40.9715 102.541 41.1925 102.073 41.601C101.605 42.0095 101.305 42.5767 101.23 43.1933H101.136Z" fill="#04042B"/>
    <path d="M117.986 38.6352V41.4908H117.286C116.893 41.4524 116.495 41.5039 116.125 41.6416C115.754 41.7792 115.419 41.9994 115.146 42.2854C114.873 42.5714 114.668 42.9157 114.547 43.2924C114.427 43.6691 114.393 44.0683 114.45 44.4598V49.5091H111.367V38.8432H114.317V40.2616C114.75 39.7121 115.311 39.2768 115.95 38.9933C116.589 38.7099 117.288 38.587 117.986 38.6352Z" fill="#04042B"/>
    <path d="M119.461 35.5719C119.468 35.3334 119.523 35.0987 119.623 34.882C119.722 34.6652 119.865 34.4707 120.041 34.3102C120.218 34.1496 120.425 34.0262 120.65 33.9473C120.875 33.8684 121.114 33.8356 121.352 33.8509C121.587 33.8303 121.823 33.8575 122.047 33.9309C122.271 34.0043 122.477 34.1224 122.654 34.278C122.831 34.4336 122.974 34.6234 123.076 34.8361C123.177 35.0487 123.234 35.2798 123.243 35.5151C123.243 36.0167 123.044 36.4977 122.689 36.8523C122.335 37.207 121.854 37.4062 121.352 37.4062C120.85 37.4062 120.37 37.207 120.015 36.8523C119.66 36.4977 119.461 36.0167 119.461 35.5151V35.5719ZM119.839 38.7867H122.94V49.5092H119.839V38.7867Z" fill="#04042B"/>
    <path d="M135.269 43.3819V49.509H132.376V48.1852C132.015 48.7011 131.524 49.1115 130.952 49.3742C130.381 49.6368 129.749 49.7421 129.123 49.6792C126.627 49.6792 125.133 48.2798 125.133 46.4455C125.133 44.6111 126.457 43.2495 129.709 43.2495H132.168C132.168 41.9257 131.373 41.1504 129.709 41.1504C128.61 41.1461 127.537 41.4904 126.646 42.1338L125.53 39.9779C126.9 39.1036 128.5 38.656 130.125 38.6919C133.378 38.6352 135.269 40.1481 135.269 43.3819ZM132.168 46.0862V44.9893H130.05C128.612 44.9893 128.159 45.5377 128.159 46.2374C128.159 46.9371 128.82 47.5423 129.917 47.5423C130.395 47.563 130.867 47.4337 131.267 47.1725C131.667 46.9114 131.975 46.5315 132.149 46.0862H132.168Z" fill="#04042B"/>
  </g>
  <defs>
    <clipPath id="clip0_267_1371">
      <rect width="146.428" height="58" fill="white"/>
    </clipPath>
  </defs>
</svg>