<svg xmlns="http://www.w3.org/2000/svg" width="147" height="58" viewBox="0 0 147 58" fill="none">
  <g clip-path="url(#clip0_267_1289)">
    <path d="M63.7002 12.5497H63.4746C63.425 12.4579 63.3838 12.3619 63.3516 12.2627C63.4613 12.3466 63.5642 12.4391 63.6591 12.5395L63.7002 12.5497Z" fill="black"/>
    <path d="M86.4309 15.6969C86.1256 14.9827 85.7585 14.2966 85.3338 13.6463C85.2355 13.5343 85.1139 13.4451 84.9775 13.3849C84.8412 13.3247 84.6934 13.295 84.5443 13.2978H82.5451V25.3345C82.5233 25.5869 82.5233 25.8408 82.5451 26.0932C82.5997 26.3072 82.722 26.4977 82.8936 26.6366C83.1699 26.8529 83.4992 26.991 83.8472 27.0364V27.6311H77.9108V27.0364C78.2623 26.9928 78.5954 26.8546 78.8746 26.6366C79.0462 26.4977 79.1685 26.3072 79.2232 26.0932C79.2449 25.8408 79.2449 25.5869 79.2232 25.3345V13.2978H77.3264H77.0803C77.0054 13.316 76.9331 13.3435 76.865 13.3797L76.6805 13.4926C76.6153 13.5508 76.5569 13.6162 76.5062 13.6874L76.3319 13.9232C76.3319 13.9847 76.2294 14.0872 76.1473 14.241L75.9525 14.6409L75.7065 15.1227L75.4399 15.6763H74.8555V11.9648H87.0665V15.6763L86.4309 15.6969Z" fill="#440A07"/>
    <path d="M95.9151 21.6539H88.8919C88.8707 22.7664 89.2327 23.8524 89.9172 24.7297C90.261 25.086 90.6789 25.3625 91.1413 25.5397C91.6036 25.7168 92.0993 25.7903 92.5932 25.755C93.7088 25.7976 94.802 25.4332 95.669 24.7297V25.3039C95.3963 26.1145 94.8438 26.8015 94.1106 27.2417C93.0258 27.8183 91.7877 28.0404 90.5702 27.8767C89.3527 27.713 88.2171 27.1718 87.3232 26.3292C86.3084 25.1349 85.7877 23.5984 85.8673 22.0332C85.8226 20.4461 86.3792 18.9007 87.4258 17.7066C87.9818 17.1169 88.6597 16.6555 89.4122 16.3545C90.1647 16.0535 90.9739 15.9201 91.7832 15.9636C92.2718 15.96 92.7585 16.0256 93.2288 16.1584C93.7176 16.3009 94.1812 16.5188 94.6027 16.8044C95.0829 17.1352 95.4569 17.5981 95.6792 18.1372C95.961 18.8013 96.0973 19.5179 96.0791 20.239C96.0617 20.7142 96.0069 21.1873 95.9151 21.6539ZM93.4031 20.4134C93.4658 20.0752 93.4967 19.732 93.4954 19.3881C93.546 18.6922 93.346 18.0012 92.9315 17.44C92.7639 17.2264 92.5486 17.0549 92.303 16.9392C92.0573 16.8235 91.7881 16.7668 91.5166 16.7736C89.8967 16.7736 89.0252 18.0552 88.9227 20.6389L93.4031 20.4134Z" fill="#440A07"/>
    <path d="M106.547 21.6541H99.5344C99.5081 22.7674 99.8706 23.8551 100.56 24.7299C100.901 25.0866 101.317 25.3634 101.778 25.5406C102.239 25.7179 102.733 25.7911 103.225 25.7552C104.341 25.7996 105.435 25.4351 106.301 24.7299V25.3041C106.029 26.1118 105.481 26.7978 104.753 27.2419C103.668 27.8185 102.43 28.0406 101.213 27.8769C99.9952 27.7132 98.8596 27.172 97.9657 26.3294C96.9472 25.1367 96.4228 23.6 96.4996 22.0334C96.4535 20.4443 97.0144 18.8972 98.0682 17.7068C98.6219 17.1168 99.2979 16.6551 100.049 16.354C100.8 16.0529 101.608 15.9197 102.415 15.9638C102.904 15.9602 103.391 16.0258 103.861 16.1586C104.351 16.2992 104.814 16.5172 105.235 16.8045C105.715 17.1354 106.089 17.5983 106.311 18.1374C106.597 18.8007 106.737 19.5174 106.722 20.2392C106.7 20.7147 106.642 21.1877 106.547 21.6541ZM104.035 20.4135C104.103 20.0761 104.134 19.7324 104.128 19.3883C104.178 18.6924 103.978 18.0014 103.564 17.4402C103.396 17.2266 103.181 17.0551 102.935 16.9394C102.69 16.8237 102.42 16.767 102.149 16.7738C100.529 16.7738 99.6574 18.0554 99.5549 20.6391L104.035 20.4135Z" fill="#440A07"/>
    <path d="M112.176 23.9303C111.774 23.5323 111.301 23.2125 110.782 22.987C110.238 22.741 109.695 22.4744 109.141 22.1976C108.588 21.9098 108.108 21.4995 107.737 20.998C107.301 20.3777 107.104 19.6207 107.184 18.8668C107.263 18.1129 107.612 17.4131 108.167 16.8969C109.099 16.136 110.291 15.7682 111.489 15.8716C112.632 15.8764 113.77 16.0316 114.873 16.333V18.9474H114.278C114.101 18.29 113.716 17.7074 113.181 17.2865C112.711 16.9128 112.13 16.707 111.53 16.7021C111.05 16.6735 110.574 16.8151 110.187 17.1019C110.038 17.2275 109.918 17.3845 109.837 17.5618C109.755 17.739 109.714 17.9321 109.716 18.1272C109.715 18.3604 109.767 18.5907 109.866 18.8016C109.965 19.0126 110.11 19.1989 110.29 19.3473C110.696 19.7433 111.164 20.0721 111.674 20.3213C112.217 20.5572 112.761 20.8237 113.304 21.1108C113.888 21.3972 114.387 21.8321 114.75 22.3719C115.147 22.9802 115.348 23.6962 115.324 24.4225C115.323 24.8029 115.247 25.1794 115.098 25.5298C114.916 25.9384 114.67 26.3156 114.37 26.6473C113.978 27.0625 113.488 27.3727 112.945 27.5495C112.247 27.7955 111.511 27.9136 110.772 27.8982C109.596 27.921 108.429 27.7083 107.337 27.2728L107.111 24.5865H107.685C108.342 26.2372 109.387 27.0677 110.813 27.0677C111.341 27.0931 111.859 26.9131 112.258 26.5653C112.428 26.4113 112.564 26.2229 112.656 26.0126C112.748 25.8022 112.794 25.5748 112.791 25.3452C112.797 25.079 112.745 24.8146 112.639 24.5704C112.533 24.3262 112.375 24.1078 112.176 23.9303Z" fill="#440A07"/>
    <path d="M88.5034 45.1635C88.9524 45.8547 89.6148 46.3803 90.3899 46.6605V47.2551H83.8999V46.6605C84.4228 46.5579 84.7099 46.3427 84.7406 46.0453C84.7562 45.8571 84.7303 45.6677 84.6648 45.4906C84.5992 45.3134 84.4956 45.1528 84.3613 45.02L81.0701 40.1192L79.6963 41.4316V44.9277C79.6757 45.1802 79.6757 45.434 79.6963 45.6864C79.7587 45.8994 79.8837 46.0888 80.0551 46.2299C80.3292 46.4498 80.6596 46.5883 81.0086 46.6297V47.2244H75.0723V46.6297C75.4213 46.5883 75.7517 46.4498 76.0258 46.2299C76.1971 46.0888 76.3222 45.8994 76.3846 45.6864C76.4052 45.434 76.4052 45.1802 76.3846 44.9277V33.9163C76.4048 33.6603 76.4048 33.4032 76.3846 33.1473C76.3252 32.9357 76.1994 32.7488 76.0258 32.6141C75.7528 32.3905 75.4223 32.2484 75.0723 32.2041V31.5991H81.0086V32.1938C80.6585 32.2381 80.3281 32.3802 80.0551 32.6039C79.8815 32.7385 79.7557 32.9255 79.6963 33.137C79.6761 33.393 79.6761 33.6501 79.6963 33.906V39.6988L85.9095 33.8137C86.103 33.6417 86.2599 33.4325 86.3708 33.1986C86.4063 33.0994 86.4116 32.9919 86.386 32.8897C86.3605 32.7875 86.3053 32.6952 86.2273 32.6244C85.9417 32.3728 85.5816 32.2215 85.202 32.1938V31.5991H90.0413V32.1938C89.0099 32.7466 88.0581 33.4364 87.2116 34.2444L83.5821 37.7508L88.5034 45.1635Z" fill="#CF3419"/>
    <path d="M93.8452 44.9274C93.8452 45.1735 93.8452 45.358 93.8452 45.4913C93.8731 45.6517 93.9143 45.8094 93.9683 45.963C94.0392 46.1447 94.1741 46.2941 94.3476 46.3833C94.5739 46.4993 94.8156 46.5821 95.0653 46.6294V47.224H89.7031V46.6294C89.9529 46.5821 90.1946 46.4993 90.4208 46.3833C90.5968 46.2974 90.7327 46.1468 90.8002 45.963C90.8541 45.8094 90.8953 45.6517 90.9232 45.4913C90.9232 45.358 90.9232 45.1735 90.9232 44.9274V39.1039C90.9232 38.8783 90.9232 38.6937 90.9232 38.5604C90.893 38.3972 90.8519 38.2363 90.8002 38.0786C90.7284 37.887 90.5949 37.7247 90.4208 37.6172C90.1979 37.4895 89.9554 37.3994 89.7031 37.3506V36.7765L93.8042 35.4949L93.8452 44.9274ZM91.077 31.8449C91.436 31.5381 91.8969 31.3771 92.3688 31.3937C92.8296 31.3812 93.2775 31.5464 93.6197 31.8551C93.7902 32.0039 93.9256 32.1887 94.0161 32.3961C94.1065 32.6036 94.1497 32.8285 94.1426 33.0547C94.1524 33.2808 94.1124 33.5064 94.0256 33.7154C93.9388 33.9244 93.8073 34.1118 93.6402 34.2645C93.2765 34.5557 92.8245 34.7144 92.3586 34.7144C91.8927 34.7144 91.4407 34.5557 91.077 34.2645C90.9115 34.1106 90.7811 33.9229 90.6944 33.7142C90.6077 33.5055 90.5669 33.2806 90.5746 33.0547C90.57 32.8338 90.6124 32.6144 90.699 32.4111C90.7856 32.2079 90.9145 32.0253 91.077 31.8757V31.8449Z" fill="#CF3419"/>
    <path d="M99.083 44.5891C99.0435 44.8678 99.0713 45.1519 99.1641 45.4177C99.2568 45.6835 99.4119 45.9232 99.6162 46.1168C100.28 46.4193 101.015 46.5294 101.739 46.4346V47.0293C100.772 47.344 99.761 47.4999 98.7447 47.4907C98.0684 47.5358 97.3995 47.3274 96.8684 46.9062C96.6263 46.6431 96.4426 46.3316 96.3295 45.9923C96.2164 45.653 96.1764 45.2936 96.2123 44.9377V36.9303H95.0332V36.3459L96.161 35.7512L98.3756 33.4546H99.083V35.7512H101.687V36.9303H99.083V44.5891Z" fill="#CF3419"/>
    <path d="M110.77 38.7761C110.654 38.8936 110.514 38.9868 110.361 39.0502C110.208 39.1135 110.044 39.1458 109.878 39.1451C109.692 39.1544 109.505 39.1266 109.329 39.0633C109.153 38.9999 108.991 38.9023 108.853 38.7761C108.732 38.6639 108.635 38.5275 108.57 38.3756C108.504 38.2237 108.472 38.0597 108.474 37.8943C108.485 37.4588 108.657 37.0427 108.956 36.7255C108.52 36.4164 107.991 36.2678 107.459 36.3052C107.037 36.2949 106.62 36.3955 106.249 36.597C105.879 36.7985 105.567 37.0939 105.347 37.4535C104.769 38.4869 104.506 39.6662 104.588 40.8471C104.588 43.8341 105.822 45.3276 108.289 45.3276C109.405 45.374 110.5 45.0091 111.365 44.3023V44.8765C111.092 45.6842 110.544 46.3702 109.817 46.8143C108.732 47.3909 107.494 47.6129 106.276 47.4492C105.059 47.2856 103.923 46.7444 103.029 45.9018C102.06 44.6661 101.543 43.1359 101.563 41.5654C101.584 39.995 102.141 38.4789 103.142 37.2689C103.714 36.675 104.408 36.2124 105.177 35.9132C105.945 35.614 106.769 35.4854 107.592 35.5362C108.467 35.5173 109.333 35.7257 110.104 36.1411C110.431 36.2879 110.709 36.5253 110.905 36.8251C111.101 37.1249 111.207 37.4745 111.211 37.8328C111.208 38.0121 111.167 38.1887 111.091 38.3512C111.015 38.5137 110.906 38.6584 110.77 38.7761Z" fill="#CF3419"/>
    <path d="M115.262 37.8737C115.759 37.1369 116.401 36.509 117.149 36.0282C117.739 35.6926 118.408 35.5192 119.087 35.5258C119.955 35.4751 120.808 35.7657 121.465 36.3358C121.769 36.6592 122.002 37.0422 122.151 37.4604C122.299 37.8787 122.359 38.3231 122.326 38.7657V44.9173C122.326 45.1634 122.326 45.348 122.326 45.4812C122.353 45.6428 122.398 45.801 122.46 45.9529C122.492 46.0447 122.542 46.1292 122.607 46.2014C122.672 46.2736 122.751 46.3321 122.839 46.3732C123.062 46.4893 123.3 46.5723 123.546 46.6193V47.214H118.553V46.6193C118.801 46.5665 119.02 46.4241 119.169 46.2195C119.282 46.0564 119.358 45.8712 119.394 45.676C119.408 45.4233 119.408 45.1701 119.394 44.9173V39.3296C119.422 39.1196 119.401 38.9061 119.332 38.7059C119.263 38.5057 119.148 38.3242 118.997 38.176C118.846 38.0278 118.662 37.9168 118.46 37.8519C118.259 37.7869 118.045 37.7698 117.836 37.8019C116.893 37.8052 115.976 38.1027 115.211 38.6529V44.9276C115.211 45.1737 115.211 45.3582 115.211 45.4915C115.238 45.6531 115.283 45.8113 115.344 45.9632C115.376 46.055 115.426 46.1395 115.491 46.2117C115.557 46.2839 115.636 46.3423 115.724 46.3835C115.953 46.5009 116.198 46.5838 116.452 46.6295V47.2242H111.069V46.6295C111.326 46.5853 111.575 46.5023 111.807 46.3835C111.983 46.2976 112.119 46.147 112.186 45.9632C112.25 45.8127 112.291 45.6538 112.309 45.4915C112.323 45.3038 112.323 45.1153 112.309 44.9276V33.9367C112.317 33.7932 112.317 33.6494 112.309 33.506C112.305 33.3708 112.284 33.2365 112.248 33.1061C112.218 32.9604 112.155 32.8236 112.063 32.7063C111.955 32.5883 111.827 32.491 111.684 32.4192C111.487 32.3183 111.276 32.2458 111.059 32.2039V31.599L115.16 30.4507L115.262 37.8737Z" fill="#CF3419"/>
    <path d="M133.789 41.2779H126.765C126.746 42.3902 127.108 43.4756 127.791 44.3537C128.132 44.7104 128.548 44.9872 129.009 45.1644C129.47 45.3416 129.964 45.4149 130.456 45.379C131.572 45.4215 132.665 45.0572 133.532 44.3537V44.9279C133.256 45.7363 132.704 46.4221 131.974 46.8657C130.889 47.4423 129.651 47.6644 128.433 47.5007C127.216 47.337 126.08 46.7958 125.186 45.9531C124.168 44.7604 123.643 43.2237 123.72 41.6572C123.674 40.068 124.235 38.521 125.289 37.3306C125.843 36.7411 126.519 36.2798 127.27 35.9787C128.021 35.6777 128.828 35.5442 129.636 35.5876C130.128 35.5833 130.618 35.6489 131.092 35.7824C131.58 35.9187 132.041 36.1371 132.456 36.4283C132.937 36.7602 133.314 37.2226 133.542 37.7612C133.817 38.4094 133.953 39.1078 133.942 39.8117C133.931 40.3038 133.88 40.7942 133.789 41.2779ZM131.277 40.0373C131.339 39.6991 131.37 39.3559 131.369 39.012C131.419 38.3162 131.219 37.6252 130.805 37.064C130.637 36.8503 130.422 36.6781 130.176 36.5607C129.931 36.4434 129.662 36.3841 129.39 36.3873C127.76 36.3873 126.899 37.6792 126.786 40.2629L131.277 40.0373Z" fill="#CF3419"/>
    <path d="M138.331 37.8738C138.828 37.14 139.465 36.5126 140.207 36.0283C140.801 35.6914 141.473 35.518 142.155 35.5259C143.021 35.4734 143.872 35.7645 144.524 36.3359C144.824 36.6612 145.055 37.0447 145.201 37.4626C145.347 37.8806 145.406 38.3241 145.375 38.7658V44.9174C145.375 45.1635 145.375 45.348 145.375 45.4813C145.402 45.6429 145.447 45.8011 145.508 45.953C145.54 46.0448 145.59 46.1293 145.655 46.2015C145.72 46.2737 145.799 46.3321 145.887 46.3733C146.117 46.4907 146.362 46.5737 146.615 46.6194V47.2141H141.602V46.6194C141.79 46.571 141.967 46.4874 142.125 46.3733C142.269 46.2693 142.377 46.1221 142.432 45.953C142.48 45.8001 142.508 45.6415 142.514 45.4813C142.514 45.348 142.514 45.1635 142.514 44.9174V39.3297C142.514 38.3044 141.981 37.802 140.925 37.802C139.99 37.8075 139.079 38.105 138.321 38.653V44.9277C138.321 45.1738 138.321 45.3583 138.321 45.4916C138.348 45.6532 138.393 45.8114 138.454 45.9632C138.486 46.0551 138.536 46.1396 138.601 46.2118C138.666 46.284 138.745 46.3424 138.833 46.3836C139.056 46.4997 139.294 46.5826 139.541 46.6296V47.2243H134.179V46.6296C134.429 46.584 134.671 46.501 134.896 46.3836C135.067 46.2911 135.195 46.1371 135.255 45.953C135.319 45.8025 135.36 45.6437 135.378 45.4813C135.392 45.2936 135.392 45.1052 135.378 44.9174V39.0939C135.391 38.913 135.391 38.7314 135.378 38.5505C135.358 38.3853 135.317 38.2233 135.255 38.0686C135.183 37.877 135.05 37.7147 134.876 37.6072C134.654 37.4777 134.411 37.3875 134.158 37.3406V36.7665L138.259 35.4849L138.331 37.8738Z" fill="#CF3419"/>
    <path d="M47.0102 14.0468H46.8154C46.8154 13.9648 46.7436 13.8828 46.7129 13.811C46.8068 13.8838 46.8958 13.9625 46.9795 14.0468H47.0102Z" fill="black"/>
    <path d="M55.0771 19.2954L55.1387 19.4697C55.0527 19.471 54.9678 19.4498 54.8926 19.4082L55.0771 19.2954Z" fill="black"/>
    <path d="M47.0102 14.0463H46.8154H46.4668C46.5321 13.9551 46.5839 13.855 46.6206 13.749L46.7129 13.8003C46.8067 13.873 46.8958 13.9518 46.9794 14.0361L47.0102 14.0463Z" fill="black"/>
    <path d="M63.4048 50.5874C61.7071 52.1862 59.6659 53.3751 57.4377 54.063C56.8587 54.2533 56.2459 54.3188 55.6398 54.2551C55.0337 54.1915 54.4479 54.0003 53.921 53.6939C53.4227 53.2812 53.0085 52.7765 52.7009 52.2073C50.1479 48.1062 44.2936 41.4931 46.1596 36.2539C47.3489 32.932 50.6811 32.3989 53.7364 33.5473C58.1656 35.2082 62.195 39.1555 65.2605 42.6312C65.5599 42.9312 65.8092 43.2774 65.9987 43.6565C67.0753 46.0249 65.5374 48.5778 63.4048 50.5874Z" fill="#440A07"/>
    <path d="M19.8706 38.202C19.4109 38.3184 18.9399 38.3838 18.4659 38.3968C13.6574 38.7249 5.05529 40.755 1.31302 36.6231C-1.05537 34.0189 0.0519258 30.8303 2.51259 28.6669C6.06006 25.5911 11.4428 23.8686 15.954 22.8023C16.3561 22.6818 16.775 22.6265 17.1946 22.6383C17.6425 22.6688 18.0824 22.7727 18.4967 22.9458C18.5913 27.3532 18.9336 31.7517 19.522 36.1207C19.6553 36.7768 19.7475 37.474 19.8706 38.202Z" fill="#CF3419"/>
    <path d="M43.9041 50.054V49.9309C42.3511 46.5648 41.0155 43.1025 39.9055 39.5654C36.9723 30.0228 35.7504 20.0364 36.2965 10.0681C36.3344 8.35126 36.4851 6.63877 36.7476 4.9417C37.0962 3.20898 39.0033 0.204915 35.9069 0.133146C32.8106 0.0613762 28.5967 -0.235949 25.6541 0.779076C22.8449 1.73259 22.5783 4.26503 22.486 7.06404C22.3835 11.647 22.322 16.2916 22.486 20.8643C22.5759 25.2719 22.9182 29.6707 23.5113 34.0391C23.6138 34.685 23.7061 35.3822 23.8291 36.0897C24.8544 42.836 26.905 52.3813 32.1134 56.2774C34.9226 58.328 40.0593 58.492 43.2274 57.1284C46.9082 55.4982 45.1549 52.8325 43.9041 50.054Z" fill="#F7AD32"/>
    <path d="M55.1387 19.4907C55.0527 19.492 54.9678 19.4708 54.8926 19.4292L55.0771 19.3164L55.1387 19.4907Z" fill="black"/>
    <path d="M46.9599 14.0054H46.4473C46.5125 13.9142 46.5643 13.814 46.6011 13.708L46.6933 13.7593C46.7875 13.8353 46.8766 13.9176 46.9599 14.0054Z" fill="black"/>
    <path d="M58.9733 9.18633C57.3636 12.8261 55.6104 16.3633 53.7752 19.9415C52.2577 22.8738 50.0739 28.9845 46.1163 29.3125C45.3337 29.3837 44.5513 29.1742 43.909 28.7215C43.2666 28.2688 42.8061 27.6025 42.6099 26.8416C42.374 25.6658 42.3531 24.4569 42.5484 23.2736C42.9824 18.5728 42.955 13.8407 42.4663 9.14528C42.21 6.50006 41.5436 2.68602 44.763 1.57872C48.5565 0.26636 52.4218 1.70179 56.2461 1.36345C57.989 1.20966 60.7881 1.24038 60.9213 3.63954C60.9031 4.48771 60.6965 5.32123 60.3164 6.0797C59.8756 7.12549 59.4347 8.1508 58.9733 9.18633Z" fill="#F7AD32"/>
    <path d="M78.2488 52.7198C78.1792 52.6079 78.0887 52.5104 77.9823 52.4328C77.8677 52.3529 77.7478 52.281 77.6234 52.2174L77.2338 51.9919C77.1097 51.9217 76.9929 51.8393 76.8852 51.7458C76.7722 51.6502 76.6813 51.5313 76.6186 51.3972C76.5502 51.2495 76.5152 51.0884 76.5161 50.9256C76.5132 50.785 76.5422 50.6456 76.6007 50.5177C76.6593 50.3899 76.7461 50.277 76.8544 50.1874C77.1116 49.9793 77.4365 49.8734 77.7669 49.8901C77.8931 49.8791 78.0201 49.8791 78.1463 49.8901C78.2418 49.8807 78.3379 49.8807 78.4334 49.8901L78.782 49.9926V50.7616H78.6589C78.5668 50.5562 78.4343 50.3713 78.2693 50.2181C78.1243 50.111 77.947 50.0568 77.7669 50.0644C77.6797 50.0582 77.5922 50.0696 77.5094 50.0977C77.4267 50.1259 77.3504 50.1703 77.2851 50.2284C77.2229 50.2874 77.1741 50.3593 77.1423 50.4389C77.1104 50.5185 77.0962 50.6041 77.1005 50.6898C77.0996 50.779 77.1164 50.8675 77.1498 50.9502C77.1832 51.0329 77.2327 51.1082 77.2953 51.1717C77.4272 51.3116 77.5836 51.4262 77.7567 51.51L78.3001 51.8074C78.4811 51.91 78.6383 52.0497 78.7615 52.2174C78.8888 52.3933 78.957 52.6052 78.9563 52.8224C78.9611 52.9781 78.9304 53.133 78.8665 53.2751C78.8025 53.4172 78.707 53.5429 78.5872 53.6426C78.2889 53.8541 77.9266 53.9556 77.5619 53.9297C77.1893 53.9203 76.82 53.8581 76.4648 53.7451V52.9659H76.5879C76.6812 53.1817 76.8255 53.3717 77.0082 53.5196C77.1617 53.6341 77.3501 53.692 77.5414 53.6836C77.7494 53.6983 77.955 53.6322 78.1155 53.499C78.1778 53.4357 78.2263 53.3602 78.258 53.2773C78.2898 53.1944 78.3041 53.1059 78.3001 53.0172C78.302 52.9157 78.2846 52.8148 78.2488 52.7198Z" fill="black"/>
    <path d="M81.6534 51.7867V53.1913C81.633 53.3031 81.633 53.4178 81.6534 53.5296C81.6761 53.5651 81.7083 53.5936 81.7463 53.6117C81.7844 53.6298 81.8268 53.6369 81.8687 53.6321C81.9839 53.6292 82.0952 53.5897 82.1865 53.5194V53.6424C82.1282 53.7445 82.0476 53.8322 81.9507 53.8987C81.838 53.9727 81.7061 54.0119 81.5713 54.0115C81.2535 54.0115 81.0894 53.8475 81.0894 53.5091C81.0014 53.6578 80.8773 53.7818 80.7285 53.8696C80.5797 53.9575 80.4111 54.0062 80.2385 54.0115C80.0263 54.0208 79.8182 53.9515 79.6541 53.8167C79.5841 53.7579 79.5284 53.6839 79.4911 53.6005C79.4538 53.517 79.4359 53.4262 79.4387 53.3348C79.4328 53.238 79.4481 53.1411 79.4835 53.0507C79.5189 52.9604 79.5736 52.8789 79.6438 52.8119C79.8402 52.6695 80.0634 52.5684 80.3 52.5146L81.0894 52.2993V51.8174C81.0939 51.6456 81.0437 51.4769 80.9459 51.3355C80.8877 51.2661 80.8133 51.2121 80.7292 51.1781C80.6452 51.1441 80.5542 51.1313 80.464 51.1407C80.3001 51.1362 80.1389 51.1828 80.0027 51.274C80.0708 51.3587 80.1103 51.4628 80.1154 51.5713C80.1169 51.6094 80.1104 51.6474 80.0965 51.6829C80.0826 51.7184 80.0615 51.7506 80.0346 51.7775C80.0076 51.8045 79.9754 51.8256 79.9399 51.8395C79.9044 51.8534 79.8664 51.8599 79.8284 51.8584C79.7888 51.8598 79.7494 51.8532 79.7124 51.8391C79.6755 51.825 79.6417 51.8037 79.613 51.7764C79.5687 51.7209 79.5435 51.6526 79.5413 51.5816C79.5462 51.4867 79.5763 51.3949 79.6286 51.3156C79.6808 51.2363 79.7534 51.1724 79.8386 51.1305C80.052 51.0129 80.2922 50.9528 80.5358 50.9562C81.2808 50.9562 81.6534 51.233 81.6534 51.7867ZM80.3923 52.7402C80.1462 52.8324 80.0334 52.976 80.0334 53.1708C80.0345 53.282 80.0785 53.3886 80.1564 53.4681C80.2101 53.5132 80.2721 53.5473 80.339 53.5684C80.4059 53.5896 80.4762 53.5973 80.5461 53.5912C80.6593 53.5936 80.7715 53.5688 80.8732 53.5188C80.9749 53.4689 81.0632 53.3952 81.1305 53.3041V52.4736L80.3923 52.7402Z" fill="black"/>
    <path d="M83.3441 53.3044C83.3441 53.5094 83.3441 53.6325 83.4672 53.694C83.6434 53.7618 83.8325 53.7898 84.0208 53.776V53.899C83.813 53.971 83.5949 54.0091 83.3749 54.0118C83.2277 54.0231 83.0815 53.9793 82.9648 53.8888C82.9107 53.8237 82.8701 53.7484 82.8454 53.6674C82.8208 53.5865 82.8126 53.5014 82.8212 53.4172V51.2641H82.4727V51.141L82.8212 51.018L83.2109 50.4233H83.3441V51.018H83.9901V51.2641H83.3441V53.3044Z" fill="black"/>
    <path d="M85.2611 53.3653C85.2541 53.4438 85.2541 53.5227 85.2611 53.6012C85.2743 53.6555 85.3072 53.703 85.3534 53.7345C85.4248 53.7884 85.5103 53.8204 85.5995 53.8267V53.9497H84.3794V53.8267C84.4355 53.8266 84.491 53.8147 84.5423 53.7917C84.5935 53.7688 84.6393 53.7352 84.6767 53.6934C84.7013 53.5854 84.7013 53.4733 84.6767 53.3653V51.7967C84.6832 51.7525 84.6832 51.7076 84.6767 51.6634C84.6838 51.6227 84.6838 51.5811 84.6767 51.5403C84.6495 51.4963 84.6104 51.4607 84.5639 51.4378L84.3691 51.3763V51.2532L85.2406 50.9559L85.2611 53.3653ZM84.728 50.1357C84.7587 50.1013 84.7967 50.0741 84.8393 50.0564C84.8819 50.0386 84.928 50.0307 84.9741 50.0332C85.0438 50.0312 85.1124 50.0503 85.1712 50.0878C85.23 50.1254 85.2761 50.1796 85.3037 50.2437C85.3313 50.3077 85.3391 50.3785 85.326 50.447C85.3129 50.5155 85.2796 50.5785 85.2304 50.6278C85.1593 50.6893 85.068 50.7222 84.9741 50.7201C84.9289 50.7225 84.8837 50.7156 84.8414 50.6997C84.799 50.6838 84.7604 50.6593 84.728 50.6278C84.6629 50.5625 84.6263 50.474 84.6263 50.3818C84.6263 50.2895 84.6629 50.2011 84.728 50.1357Z" fill="black"/>
    <path d="M87.3856 52.9148C87.2876 52.8071 87.1691 52.72 87.037 52.6585L86.6166 52.474C86.4805 52.4054 86.3615 52.3073 86.268 52.1869C86.1631 52.0526 86.1087 51.8856 86.1143 51.7153C86.1198 51.5135 86.2045 51.322 86.3501 51.1821C86.4553 51.0961 86.5765 51.0319 86.7068 50.9932C86.837 50.9545 86.9737 50.942 87.1088 50.9566C87.3759 50.9567 87.6417 50.9947 87.8982 51.0693V51.6435H87.7752C87.7335 51.4925 87.6434 51.3592 87.5189 51.2642C87.4023 51.1813 87.2621 51.1382 87.119 51.1411C86.9782 51.131 86.8389 51.175 86.7294 51.2642C86.6469 51.3531 86.6027 51.471 86.6064 51.5923C86.6039 51.6557 86.6154 51.719 86.6402 51.7775C86.6651 51.836 86.7025 51.8883 86.7499 51.9306C86.8565 52.0222 86.9778 52.0949 87.1088 52.1459L87.5189 52.3407C87.6653 52.4119 87.7894 52.5218 87.8777 52.6585C87.9827 52.8118 88.0333 52.996 88.0213 53.1814C88.0201 53.2906 87.9958 53.3982 87.9498 53.4972C87.9038 53.5962 87.8373 53.6843 87.7547 53.7556C87.5258 53.9459 87.231 54.038 86.9345 54.0119C86.6631 54.01 86.3947 53.9543 86.145 53.8479L86.0938 53.2532H86.2168C86.2584 53.4193 86.355 53.5665 86.4909 53.6707C86.6268 53.775 86.794 53.8302 86.9652 53.8274C87.0414 53.8331 87.1179 53.8234 87.1901 53.7988C87.2624 53.7741 87.3289 53.7349 87.3856 53.6838C87.4356 53.6365 87.4752 53.5792 87.5017 53.5156C87.5282 53.452 87.541 53.3836 87.5394 53.3147C87.5427 53.1664 87.4875 53.0227 87.3856 52.9148Z" fill="black"/>
    <path d="M88.853 50.7204C88.8382 50.5758 88.8543 50.4298 88.9003 50.2919C88.9462 50.154 89.021 50.0275 89.1196 49.9207C89.1992 49.8383 89.2949 49.773 89.4007 49.7289C89.5064 49.6849 89.6201 49.6629 89.7347 49.6644C89.8672 49.6574 89.9979 49.6973 90.1038 49.7771C90.149 49.81 90.1856 49.8532 90.2106 49.9032C90.2356 49.9531 90.2482 50.0084 90.2474 50.0642C90.2507 50.1031 90.246 50.1422 90.2337 50.1793C90.2213 50.2163 90.2016 50.2504 90.1756 50.2795C90.1198 50.3313 90.0467 50.3605 89.9705 50.3615C89.8875 50.3647 89.8066 50.3353 89.745 50.2795C89.7198 50.2579 89.6995 50.2312 89.6854 50.2012C89.6712 50.1711 89.6636 50.1384 89.663 50.1052C89.6633 50.0564 89.6756 50.0085 89.6988 49.9655C89.7221 49.9226 89.7555 49.8861 89.7962 49.8592H89.663C89.6153 49.8599 89.5685 49.8714 89.5259 49.8927C89.4833 49.914 89.4461 49.9446 89.4169 49.9822C89.3342 50.0827 89.2938 50.2114 89.3041 50.3411C89.3071 50.5752 89.3311 50.8085 89.3759 51.0383H90.0218V51.2843H89.3759V53.3861C89.3691 53.4475 89.3691 53.5093 89.3759 53.5707C89.3795 53.6161 89.3975 53.6591 89.4271 53.6937C89.4403 53.7197 89.4591 53.7423 89.4822 53.7601C89.5052 53.7778 89.532 53.7902 89.5604 53.7963C89.649 53.8059 89.7384 53.8059 89.827 53.7963V53.9193H88.4941V53.7963C88.5503 53.7962 88.6058 53.7842 88.657 53.7613C88.7082 53.7383 88.754 53.7048 88.7915 53.663C88.8332 53.5589 88.8508 53.4467 88.8427 53.3349V51.2331H88.4941V51.11L88.8427 50.9869L88.853 50.7204Z" fill="black"/>
    <path d="M93.1262 51.1411C93.0462 51.1924 92.9737 51.2545 92.9108 51.3257C92.8526 51.4158 92.8045 51.5121 92.7673 51.6128L92.0906 53.4173C91.9739 53.7467 91.8369 54.0685 91.6805 54.381C91.5854 54.5898 91.4649 54.7861 91.3217 54.9654C91.2335 55.0735 91.1256 55.1639 91.0038 55.232C90.9093 55.2823 90.8033 55.307 90.6962 55.3038C90.5924 55.3096 90.4902 55.2767 90.4092 55.2115C90.3774 55.1831 90.3518 55.1483 90.3342 55.1095C90.3165 55.0707 90.3072 55.0286 90.3066 54.9859C90.3066 54.9457 90.3148 54.9058 90.3307 54.8688C90.3465 54.8318 90.3698 54.7984 90.3989 54.7706C90.4516 54.7203 90.5209 54.6912 90.5937 54.6886C90.66 54.69 90.7244 54.7114 90.7783 54.7501C90.8061 54.774 90.8281 54.804 90.8423 54.8378C90.8566 54.8716 90.8627 54.9083 90.8603 54.9449C90.8695 54.9854 90.8695 55.0275 90.8603 55.068C91.0756 55.068 91.3217 54.6886 91.6292 54.0427L90.604 51.6025C90.5692 51.504 90.5209 51.4109 90.4604 51.3257C90.4038 51.2647 90.3381 51.2129 90.2656 51.1719V51.0488H91.3524V51.1719C91.2841 51.192 91.2211 51.227 91.1679 51.2744C91.1508 51.2877 91.1373 51.3048 91.1283 51.3245C91.1194 51.3441 91.1154 51.3656 91.1166 51.3872C91.1163 51.4555 91.134 51.5227 91.1679 51.582L91.8753 53.3762L92.47 51.5615C92.4772 51.507 92.4772 51.4519 92.47 51.3975C92.4708 51.3734 92.4657 51.3496 92.4549 51.3281C92.4442 51.3066 92.4282 51.2881 92.4085 51.2744C92.3274 51.2302 92.2414 51.1958 92.1521 51.1719V51.0488H93.1057L93.1262 51.1411Z" fill="black"/>
    <path d="M94.3275 53.3657C94.319 53.4441 94.319 53.5232 94.3275 53.6015C94.3299 53.6286 94.3385 53.6547 94.3527 53.6779C94.367 53.701 94.3864 53.7205 94.4096 53.7348C94.4809 53.7888 94.5664 53.8208 94.6556 53.8271V53.9501H93.4458V53.8271C93.5996 53.8271 93.7021 53.7553 93.7329 53.6938C93.7626 53.5864 93.7626 53.473 93.7329 53.3657V51.6637C93.7329 51.6637 93.7329 51.592 93.7329 51.5407C93.7329 51.4895 93.6816 51.4689 93.6303 51.4382L93.4355 51.3766V51.2536L94.2968 50.9563L94.3275 53.3657ZM93.8046 50.1361C93.8362 50.1006 93.8747 50.0719 93.9177 50.0518C93.9608 50.0317 94.0075 50.0206 94.0549 50.0192C94.1024 50.0178 94.1497 50.0261 94.1939 50.0437C94.238 50.0612 94.2781 50.0875 94.3117 50.1211C94.3453 50.1547 94.3717 50.1948 94.3892 50.239C94.4067 50.2831 94.4151 50.3304 94.4137 50.3779C94.4123 50.4254 94.4012 50.4721 94.3811 50.5151C94.361 50.5582 94.3323 50.5966 94.2968 50.6282C94.2281 50.6867 94.1409 50.7188 94.0507 50.7188C93.9605 50.7188 93.8733 50.6867 93.8046 50.6282C93.7395 50.5629 93.703 50.4744 93.703 50.3821C93.703 50.2899 93.7395 50.2014 93.8046 50.1361Z" fill="black"/>
    <path d="M95.9662 51.4483C96.103 51.2956 96.262 51.1643 96.4378 51.0587C96.5815 50.9891 96.7395 50.954 96.8992 50.9562C97.1119 50.9428 97.3215 51.0126 97.4836 51.151C97.5605 51.2265 97.6197 51.318 97.6569 51.4191C97.6942 51.5201 97.7085 51.6282 97.6989 51.7355V53.3656C97.6919 53.4441 97.6919 53.523 97.6989 53.6015C97.7121 53.6558 97.745 53.7033 97.7912 53.7348C97.8625 53.7887 97.948 53.8207 98.0373 53.827V53.95H96.8787V53.827C96.9272 53.825 96.9745 53.812 97.0172 53.7889C97.0598 53.7658 97.0966 53.7332 97.1248 53.6937C97.1424 53.5851 97.1424 53.4743 97.1248 53.3656V51.8277C97.1337 51.7655 97.1278 51.702 97.1076 51.6425C97.0874 51.583 97.0534 51.5291 97.0085 51.4851C96.9636 51.4412 96.9089 51.4084 96.8489 51.3896C96.789 51.3707 96.7254 51.3663 96.6634 51.3766C96.3932 51.3816 96.1315 51.4713 95.9149 51.6329V53.3656C95.9149 53.4784 95.9149 53.5605 95.9149 53.6015C95.9281 53.6558 95.961 53.7033 96.0072 53.7348C96.0786 53.7887 96.1641 53.8207 96.2533 53.827V53.95H95.0435V53.827C95.0979 53.8255 95.1514 53.8129 95.2007 53.7899C95.2501 53.767 95.2943 53.7343 95.3305 53.6937C95.3551 53.5857 95.3551 53.4736 95.3305 53.3656V51.797C95.337 51.7528 95.337 51.7079 95.3305 51.6637C95.3376 51.623 95.3376 51.5814 95.3305 51.5406C95.3074 51.4969 95.2717 51.4612 95.228 51.4381L95.0332 51.3766V51.2535L95.8944 50.9562L95.9662 51.4483Z" fill="black"/>
    <path d="M100.282 53.6628C100.513 53.7072 100.733 53.7979 100.928 53.9294C100.995 53.9897 101.049 54.0641 101.084 54.1474C101.12 54.2307 101.136 54.3208 101.133 54.4113C101.125 54.537 101.086 54.6589 101.02 54.7662C100.954 54.8735 100.862 54.9628 100.754 55.0264C100.448 55.2218 100.09 55.3185 99.7284 55.3032C99.3754 55.3307 99.0214 55.2635 98.7031 55.1084C98.6082 55.0648 98.5273 54.9958 98.4694 54.9089C98.4114 54.822 98.3788 54.7207 98.375 54.6163C98.375 54.3293 98.5903 54.1037 99.0209 53.9294C98.9368 53.9108 98.8616 53.8641 98.8075 53.797C98.7535 53.7299 98.7239 53.6464 98.7236 53.5603C98.725 53.4559 98.7611 53.3549 98.8261 53.2732C98.9065 53.1616 99.0118 53.0703 99.1337 53.0066C98.9524 52.9259 98.8015 52.7894 98.7031 52.617C98.5984 52.4329 98.5453 52.2239 98.5493 52.0121C98.5444 51.872 98.5682 51.7324 98.6194 51.6019C98.6705 51.4715 98.7478 51.3528 98.8466 51.2534C98.9576 51.1501 99.0885 51.0705 99.2313 51.0193C99.3741 50.9682 99.5258 50.9467 99.6771 50.9561C99.8167 50.9391 99.9579 50.9391 100.097 50.9561H101.01V51.2636H100.549C100.644 51.3627 100.719 51.48 100.768 51.6086C100.818 51.7372 100.841 51.8744 100.836 52.0121C100.847 52.3106 100.74 52.6016 100.538 52.8221C100.429 52.9288 100.299 53.0113 100.156 53.0643C100.013 53.1173 99.8601 53.1396 99.7079 53.1297C99.5754 53.1318 99.4436 53.111 99.3183 53.0681C99.2825 53.093 99.2522 53.1249 99.2293 53.162C99.2063 53.199 99.1913 53.2404 99.185 53.2835C99.185 53.386 99.2465 53.4475 99.3593 53.468L100.282 53.6628ZM100.354 54.9136C100.426 54.8822 100.487 54.8307 100.531 54.7653C100.575 54.6998 100.599 54.6232 100.6 54.5446C100.604 54.4998 100.597 54.4547 100.579 54.4135C100.561 54.3722 100.533 54.3362 100.497 54.3088C100.394 54.2356 100.274 54.1897 100.149 54.1755L99.1234 53.9704C99.0239 54.0249 98.9392 54.1029 98.8767 54.1976C98.8142 54.2923 98.7757 54.4008 98.7646 54.5138C98.7646 54.8829 99.0517 55.0572 99.6258 55.0572C99.8907 55.0861 100.158 55.0361 100.395 54.9136H100.354ZM99.185 51.356C99.0812 51.5363 99.0313 51.7427 99.0414 51.9506C99.0414 52.6067 99.2567 52.9758 99.6874 52.9758C100.118 52.9758 100.282 52.6785 100.282 52.0941C100.282 51.5097 100.067 51.1714 99.6361 51.1714C99.5516 51.1632 99.4663 51.1757 99.3877 51.2079C99.3091 51.24 99.2395 51.2909 99.185 51.356Z" fill="black"/>
    <path d="M105.449 51.1411C105.369 51.1924 105.297 51.2545 105.234 51.3257C105.176 51.4158 105.128 51.5121 105.091 51.6128L104.414 53.4173C104.27 53.8069 104.127 54.1246 104.004 54.381C103.909 54.5925 103.785 54.7893 103.635 54.9654C103.551 55.0739 103.446 55.1646 103.327 55.232C103.229 55.2822 103.12 55.3069 103.009 55.3037C102.909 55.308 102.81 55.2752 102.732 55.2115C102.699 55.1845 102.672 55.15 102.654 55.1108C102.637 55.0717 102.628 55.0289 102.63 54.9859C102.63 54.9456 102.638 54.9058 102.654 54.8688C102.67 54.8317 102.693 54.7983 102.722 54.7706C102.773 54.7252 102.839 54.7001 102.907 54.7001C102.975 54.7001 103.041 54.7252 103.091 54.7706C103.121 54.7925 103.145 54.8223 103.159 54.8566C103.174 54.8909 103.179 54.9285 103.173 54.9654C103.183 55.0058 103.183 55.048 103.173 55.0884C103.378 55.0884 103.635 54.7091 103.942 54.0631L102.917 51.623C102.882 51.5245 102.834 51.4314 102.773 51.3462C102.715 51.2829 102.646 51.2307 102.568 51.1924V51.0693H103.665V51.1924C103.597 51.2125 103.534 51.2475 103.481 51.2949C103.463 51.3077 103.447 51.3245 103.437 51.3441C103.426 51.3636 103.42 51.3854 103.419 51.4077C103.424 51.4767 103.445 51.5436 103.481 51.6025L104.188 53.3967L104.773 51.582C104.783 51.5278 104.783 51.4721 104.773 51.418C104.774 51.3939 104.768 51.3701 104.758 51.3486C104.747 51.3271 104.731 51.3086 104.711 51.2949L104.455 51.1924V51.0693H105.408L105.449 51.1411Z" fill="black"/>
    <path d="M106.075 51.3666C106.2 51.2211 106.359 51.1078 106.538 51.0365C106.716 50.9651 106.909 50.9377 107.1 50.9564C107.29 50.9427 107.481 50.9715 107.658 51.0407C107.835 51.1099 107.995 51.2177 108.125 51.3563C108.344 51.69 108.46 52.0801 108.46 52.4789C108.46 52.8777 108.344 53.2679 108.125 53.6017C108 53.7478 107.842 53.8615 107.663 53.9329C107.485 54.0043 107.291 54.0314 107.1 54.0117C106.91 54.0254 106.72 53.9966 106.542 53.9274C106.365 53.8583 106.205 53.7505 106.075 53.6119C105.857 53.2781 105.74 52.888 105.74 52.4892C105.74 52.0904 105.857 51.7003 106.075 51.3666ZM107.1 53.8272C107.211 53.8278 107.32 53.7998 107.417 53.7459C107.514 53.692 107.596 53.6141 107.654 53.5196C107.82 53.205 107.891 52.8487 107.859 52.4943C107.859 51.5511 107.592 51.0897 107.049 51.0897C106.936 51.0883 106.825 51.1159 106.727 51.1697C106.628 51.2236 106.545 51.302 106.485 51.3973C106.328 51.6969 106.257 52.0339 106.28 52.3713C106.29 53.3658 106.547 53.8272 107.11 53.8272H107.1Z" fill="black"/>
    <path d="M110.966 53.5197C110.856 53.663 110.717 53.7811 110.558 53.866C110.398 53.9509 110.223 54.0006 110.043 54.0119C109.827 54.0269 109.613 53.957 109.448 53.8171C109.371 53.7416 109.312 53.6501 109.275 53.549C109.238 53.448 109.223 53.3399 109.233 53.2326V51.664C109.239 51.6232 109.239 51.5818 109.233 51.541C109.233 51.541 109.182 51.4692 109.13 51.4384L108.936 51.3769V51.2539L109.807 50.9566V53.1301C109.799 53.1914 109.804 53.2537 109.824 53.3124C109.844 53.371 109.877 53.4242 109.92 53.4679C109.964 53.5117 110.017 53.5446 110.076 53.5643C110.135 53.584 110.197 53.5898 110.258 53.5813C110.529 53.5776 110.791 53.4878 111.007 53.3249V51.582V51.4692C110.987 51.4231 110.95 51.3864 110.904 51.3667C110.841 51.3325 110.771 51.3115 110.699 51.3051V51.1821L111.571 50.9463V53.2942C111.564 53.3555 111.564 53.4174 111.571 53.4788C111.563 53.5195 111.563 53.5611 111.571 53.6018C111.59 53.6479 111.627 53.6846 111.673 53.7043C111.741 53.7138 111.81 53.7138 111.878 53.7043V53.8273L111.007 53.9503L110.966 53.5197Z" fill="black"/>
    <path d="M113.14 51.5713C113.243 51.4028 113.367 51.2479 113.509 51.1099C113.61 51.0112 113.746 50.956 113.888 50.9561C113.98 50.9546 114.07 50.9835 114.144 51.0381C114.178 51.0716 114.204 51.1117 114.222 51.1557C114.24 51.1998 114.248 51.247 114.247 51.2945C114.248 51.3349 114.241 51.3752 114.225 51.4124C114.209 51.4496 114.185 51.4828 114.155 51.5097C114.127 51.5413 114.092 51.5661 114.052 51.5821C114.013 51.5981 113.971 51.6049 113.929 51.602C113.851 51.6036 113.775 51.5783 113.714 51.5303C113.684 51.5075 113.66 51.4779 113.644 51.444C113.628 51.4102 113.62 51.3729 113.621 51.3355C113.42 51.4206 113.251 51.5679 113.14 51.7558V53.3655C113.133 53.4268 113.133 53.4887 113.14 53.55C113.131 53.5906 113.131 53.6326 113.14 53.6731C113.173 53.7239 113.224 53.7604 113.283 53.7756C113.372 53.7853 113.461 53.7853 113.55 53.7756V53.8987H112.217V53.7756C112.381 53.7756 112.473 53.7039 112.504 53.6423C112.556 53.5413 112.577 53.4273 112.565 53.3142V51.7968C112.565 51.7353 112.565 51.6943 112.565 51.6636C112.572 51.6228 112.572 51.5812 112.565 51.5405C112.539 51.4991 112.504 51.4641 112.463 51.438L112.258 51.3764V51.2534L113.129 50.9561L113.14 51.5713Z" fill="black"/>
    <path d="M118.142 51.7357C118.116 51.7664 118.083 51.7907 118.045 51.8067C118.008 51.8227 117.967 51.8299 117.927 51.8279C117.887 51.8292 117.848 51.8227 117.811 51.8086C117.774 51.7945 117.74 51.7732 117.712 51.7459C117.683 51.7201 117.66 51.6885 117.644 51.6532C117.628 51.6179 117.62 51.5796 117.619 51.5409C117.622 51.4881 117.635 51.4363 117.658 51.3887C117.68 51.3411 117.713 51.2987 117.753 51.264C117.624 51.1738 117.468 51.1304 117.312 51.141C117.189 51.136 117.067 51.1626 116.958 51.2183C116.848 51.2739 116.755 51.3567 116.686 51.4588C116.525 51.7237 116.447 52.0307 116.461 52.3405C116.461 53.1608 116.799 53.5811 117.486 53.5811C117.785 53.5933 118.076 53.4864 118.296 53.2838V53.4069C118.209 53.6019 118.064 53.7649 117.88 53.8733C117.696 53.9818 117.483 54.0301 117.271 54.0117C117.081 54.0269 116.89 53.9988 116.712 53.9296C116.535 53.8603 116.375 53.7517 116.245 53.6119C115.996 53.3104 115.868 52.9264 115.887 52.5353C115.867 52.1153 116.01 51.7039 116.286 51.387C116.416 51.2451 116.575 51.1331 116.752 51.0588C116.929 50.9844 117.12 50.9495 117.312 50.9564C117.533 50.9523 117.752 51.0053 117.947 51.1103C118.026 51.1494 118.092 51.2093 118.139 51.2833C118.186 51.3574 118.212 51.4429 118.214 51.5306C118.217 51.6055 118.191 51.6788 118.142 51.7357Z" fill="black"/>
    <path d="M119.548 51.5713C119.636 51.3943 119.747 51.229 119.876 51.0792C119.977 50.9804 120.114 50.9252 120.255 50.9253C120.347 50.9239 120.437 50.9527 120.511 51.0074C120.545 51.0409 120.572 51.0809 120.589 51.125C120.607 51.169 120.615 51.2163 120.614 51.2637C120.615 51.3042 120.608 51.3444 120.592 51.3816C120.576 51.4188 120.552 51.4521 120.522 51.479C120.494 51.5106 120.459 51.5353 120.42 51.5513C120.381 51.5673 120.338 51.5741 120.296 51.5713C120.218 51.5729 120.142 51.5475 120.081 51.4995C120.051 51.4767 120.027 51.4471 120.011 51.4133C119.995 51.3794 119.987 51.3422 119.989 51.3047C119.787 51.3899 119.618 51.5372 119.507 51.7251V53.3348C119.5 53.3961 119.5 53.458 119.507 53.5193C119.498 53.5599 119.498 53.6018 119.507 53.6424C119.54 53.6931 119.591 53.7296 119.65 53.7449C119.739 53.7545 119.828 53.7545 119.917 53.7449V53.8679H118.584V53.7449C118.748 53.7449 118.84 53.6731 118.871 53.6116C118.923 53.5105 118.944 53.3966 118.933 53.2835V51.7969C118.933 51.7354 118.933 51.6943 118.933 51.6636C118.94 51.6229 118.94 51.5813 118.933 51.5406C118.906 51.4992 118.871 51.4641 118.83 51.438L118.625 51.3765V51.2534L119.496 50.9561L119.548 51.5713Z" fill="black"/>
    <path d="M123.138 51.7867V53.1913C123.117 53.3031 123.117 53.4178 123.138 53.5296C123.16 53.5651 123.193 53.5936 123.231 53.6117C123.269 53.6298 123.311 53.6369 123.353 53.6321C123.469 53.6307 123.58 53.591 123.671 53.5194V53.6424C123.611 53.7539 123.523 53.8472 123.414 53.9122C123.306 53.9772 123.182 54.0115 123.056 54.0115C122.738 54.0115 122.584 53.8475 122.574 53.5091C122.487 53.6563 122.364 53.7794 122.217 53.8672C122.07 53.9549 121.904 54.0045 121.733 54.0115C121.52 54.025 121.311 53.9551 121.149 53.8167C121.076 53.76 121.017 53.6867 120.978 53.6029C120.939 53.5192 120.92 53.4273 120.923 53.3348C120.917 53.238 120.932 53.1411 120.968 53.0507C121.003 52.9604 121.058 52.8789 121.128 52.8119C121.328 52.6697 121.555 52.5687 121.795 52.5146L122.574 52.2993V51.8174C122.578 51.6456 122.528 51.4769 122.43 51.3355C122.373 51.2676 122.3 51.2144 122.218 51.1805C122.136 51.1466 122.047 51.133 121.959 51.1407C121.791 51.1347 121.626 51.1813 121.487 51.274C121.559 51.3562 121.6 51.4618 121.6 51.5713C121.603 51.6095 121.597 51.648 121.583 51.6836C121.569 51.7192 121.546 51.751 121.518 51.7764C121.491 51.8029 121.459 51.8238 121.423 51.8379C121.388 51.852 121.351 51.859 121.313 51.8584C121.275 51.8609 121.236 51.8549 121.201 51.8407C121.165 51.8265 121.134 51.8045 121.108 51.7764C121.056 51.7249 121.026 51.6548 121.026 51.5816C121.031 51.4867 121.061 51.3949 121.113 51.3156C121.165 51.2363 121.238 51.1724 121.323 51.1305C121.536 51.0129 121.777 50.9528 122.02 50.9562C122.765 50.9562 123.138 51.233 123.138 51.7867ZM121.877 52.7402C121.641 52.8324 121.518 52.976 121.518 53.1708C121.519 53.282 121.563 53.3886 121.641 53.4681C121.694 53.5132 121.757 53.5473 121.823 53.5684C121.89 53.5896 121.961 53.5973 122.03 53.5912C122.144 53.5936 122.256 53.5688 122.358 53.5188C122.459 53.4689 122.548 53.3952 122.615 53.3041V52.4736L121.877 52.7402Z" fill="black"/>
    <path d="M126.621 51.1406C126.541 51.1887 126.472 51.2513 126.416 51.3251C126.349 51.4105 126.301 51.508 126.272 51.6123L125.38 53.9806H125.062L124.088 51.5507C124.055 51.4601 124.01 51.374 123.955 51.2944C123.897 51.2311 123.827 51.179 123.75 51.1406V51.0176H124.847V51.1406C124.673 51.2021 124.591 51.2637 124.591 51.3457C124.602 51.4197 124.623 51.492 124.652 51.5609L125.36 53.3757L125.954 51.5405C125.964 51.4827 125.964 51.4239 125.954 51.3662C125.955 51.3422 125.95 51.3183 125.939 51.2968C125.929 51.2753 125.913 51.2568 125.893 51.2431L125.637 51.1406V51.0176H126.58L126.621 51.1406Z" fill="black"/>
    <path d="M127.852 53.3659C127.845 53.4444 127.845 53.5234 127.852 53.6018C127.861 53.6553 127.891 53.7033 127.934 53.7351C128.009 53.791 128.098 53.8231 128.191 53.8273V53.9504H126.971V53.8273C127.124 53.8273 127.227 53.7556 127.258 53.694C127.31 53.593 127.331 53.479 127.319 53.3659V51.7973C127.319 51.7358 127.319 51.6948 127.319 51.664C127.322 51.623 127.322 51.582 127.319 51.541C127.292 51.4969 127.253 51.4614 127.207 51.4384L127.012 51.3769V51.2539L127.883 50.9566L127.852 53.3659ZM127.319 50.1364C127.385 50.0712 127.473 50.0347 127.565 50.0347C127.658 50.0347 127.746 50.0712 127.811 50.1364C127.846 50.1671 127.874 50.205 127.893 50.2474C127.913 50.2899 127.923 50.3359 127.923 50.3824C127.923 50.429 127.913 50.475 127.893 50.5174C127.874 50.5598 127.846 50.5977 127.811 50.6285C127.743 50.687 127.656 50.7191 127.565 50.7191C127.475 50.7191 127.388 50.687 127.319 50.6285C127.254 50.5631 127.218 50.4747 127.218 50.3824C127.218 50.2902 127.254 50.2017 127.319 50.1364Z" fill="black"/>
    <path d="M129.483 51.4483C129.623 51.2984 129.781 51.1674 129.955 51.0587C130.099 50.9891 130.257 50.954 130.416 50.9562C130.629 50.9428 130.839 51.0126 131.001 51.151C131.078 51.2265 131.137 51.318 131.174 51.4191C131.211 51.5201 131.226 51.6282 131.216 51.7355V53.3656C131.209 53.4441 131.209 53.523 131.216 53.6015C131.229 53.6558 131.262 53.7033 131.308 53.7348C131.38 53.7887 131.465 53.8207 131.554 53.827V53.95H130.396V53.827C130.444 53.825 130.492 53.812 130.534 53.7889C130.577 53.7658 130.614 53.7332 130.642 53.6937C130.659 53.5851 130.659 53.4743 130.642 53.3656V51.8277C130.651 51.7655 130.645 51.702 130.625 51.6425C130.604 51.583 130.571 51.5291 130.526 51.4851C130.481 51.4412 130.426 51.4084 130.366 51.3896C130.306 51.3707 130.242 51.3663 130.18 51.3766C129.91 51.3816 129.649 51.4713 129.432 51.6329V53.3656C129.432 53.4784 129.432 53.5605 129.432 53.6015C129.445 53.6558 129.478 53.7033 129.524 53.7348C129.596 53.7887 129.681 53.8207 129.77 53.827V53.95H128.561V53.827C128.714 53.827 128.817 53.7552 128.848 53.6937C128.894 53.5911 128.912 53.4776 128.899 53.3656V51.6637V51.5406C128.876 51.4969 128.84 51.4612 128.796 51.4381L128.602 51.3766V51.2535L129.463 50.9562L129.483 51.4483Z" fill="black"/>
    <path d="M133.799 53.6628C134.03 53.7072 134.25 53.7979 134.445 53.9294C134.513 53.9897 134.566 54.0641 134.601 54.1474C134.637 54.2307 134.653 54.3208 134.65 54.4113C134.642 54.537 134.603 54.6589 134.537 54.7662C134.471 54.8735 134.38 54.9628 134.271 55.0264C133.966 55.2218 133.608 55.3185 133.245 55.3032C132.892 55.3307 132.539 55.2635 132.22 55.1084C132.126 55.0653 132.046 54.9961 131.989 54.9089C131.933 54.8217 131.903 54.7202 131.902 54.6163C131.902 54.3293 132.107 54.1037 132.538 53.9294C132.455 53.9091 132.381 53.862 132.327 53.7952C132.273 53.7285 132.243 53.6459 132.241 53.5603C132.242 53.4559 132.278 53.3549 132.343 53.2732C132.392 53.2722 132.441 53.2604 132.485 53.2389C132.529 53.2173 132.568 53.1863 132.599 53.1482C132.63 53.1101 132.652 53.0657 132.664 53.0181C132.676 52.9705 132.678 52.9209 132.669 52.8726C132.659 52.8243 132.64 52.7786 132.612 52.7386C132.583 52.6986 132.546 52.6653 132.504 52.641C132.461 52.6167 132.413 52.602 132.364 52.5978C132.316 52.5937 132.266 52.6002 132.22 52.617C132.116 52.4329 132.062 52.2239 132.066 52.0121C132.061 51.872 132.085 51.7324 132.136 51.6019C132.188 51.4715 132.265 51.3528 132.364 51.2534C132.475 51.1501 132.606 51.0705 132.748 51.0193C132.891 50.9682 133.043 50.9467 133.194 50.9561C133.334 50.9391 133.475 50.9391 133.615 50.9561H134.537V51.2636H134.066C134.161 51.3627 134.236 51.48 134.285 51.6086C134.335 51.7372 134.358 51.8744 134.353 52.0121C134.364 52.3106 134.257 52.6016 134.055 52.8221C133.946 52.9288 133.816 53.0113 133.673 53.0643C133.53 53.1173 133.377 53.1396 133.225 53.1297C133.093 53.1318 132.961 53.111 132.835 53.0681C132.8 53.093 132.769 53.1249 132.746 53.162C132.723 53.199 132.708 53.2404 132.702 53.2835C132.702 53.386 132.764 53.4475 132.876 53.468L133.799 53.6628ZM133.871 54.9136C133.943 54.8822 134.005 54.8307 134.048 54.7653C134.092 54.6998 134.116 54.6232 134.117 54.5446C134.121 54.4998 134.114 54.4547 134.096 54.4135C134.078 54.3722 134.05 54.3362 134.014 54.3088C133.911 54.2356 133.791 54.1897 133.666 54.1755L132.641 53.9704C132.542 54.0248 132.458 54.1029 132.397 54.1978C132.336 54.2927 132.3 54.4013 132.292 54.5138C132.292 54.8829 132.579 55.0572 133.143 55.0572C133.394 55.0781 133.646 55.0284 133.871 54.9136ZM132.712 51.356C132.601 51.5338 132.548 51.7413 132.559 51.9506C132.559 52.6067 132.774 52.9758 133.204 52.9758C133.635 52.9758 133.799 52.6785 133.799 52.0941C133.799 51.5097 133.584 51.1714 133.153 51.1714C133.07 51.1622 132.986 51.1742 132.909 51.2065C132.832 51.2388 132.764 51.2903 132.712 51.356Z" fill="black"/>
    <path d="M136.28 52.9148C136.18 52.8095 136.062 52.7227 135.932 52.6585L135.511 52.474C135.374 52.4023 135.252 52.3049 135.152 52.1869C135.055 52.0494 135.004 51.8839 135.009 51.7153C135.014 51.5135 135.099 51.322 135.245 51.1821C135.35 51.0961 135.471 51.0319 135.601 50.9932C135.732 50.9545 135.868 50.942 136.003 50.9566C136.27 50.9574 136.536 50.9953 136.793 51.0693V51.6435H136.67C136.628 51.4925 136.538 51.3592 136.413 51.2642C136.297 51.1813 136.157 51.1382 136.014 51.1411C135.873 51.131 135.733 51.175 135.624 51.2642C135.541 51.3531 135.497 51.471 135.501 51.5923C135.498 51.6557 135.51 51.719 135.535 51.7775C135.56 51.836 135.597 51.8883 135.644 51.9306C135.749 52.0243 135.871 52.0973 136.003 52.1459L136.413 52.3407C136.56 52.4119 136.684 52.5218 136.772 52.6585C136.877 52.8118 136.928 52.996 136.916 53.1814C136.915 53.2906 136.89 53.3982 136.844 53.4972C136.798 53.5962 136.732 53.6843 136.649 53.7556C136.42 53.9459 136.126 54.038 135.829 54.0119C135.558 54.01 135.289 53.9543 135.04 53.8479L134.988 53.2532H135.111C135.153 53.4193 135.25 53.5665 135.385 53.6707C135.521 53.775 135.689 53.8302 135.86 53.8274C136.013 53.8367 136.164 53.7851 136.28 53.6838C136.33 53.6365 136.37 53.5792 136.396 53.5156C136.423 53.452 136.436 53.3836 136.434 53.3147C136.437 53.1664 136.382 53.0227 136.28 52.9148Z" fill="black"/>
    <path d="M137.655 53.4887C137.681 53.4603 137.713 53.4376 137.748 53.4217C137.783 53.4058 137.821 53.3973 137.86 53.3965C137.899 53.3967 137.937 53.4049 137.972 53.4208C138.007 53.4367 138.039 53.4599 138.065 53.4887C138.117 53.5484 138.145 53.6249 138.145 53.7041C138.145 53.7832 138.117 53.8597 138.065 53.9194C138.039 53.9483 138.007 53.9714 137.972 53.9873C137.937 54.0032 137.899 54.0114 137.86 54.0116C137.821 54.0108 137.783 54.0023 137.748 53.9864C137.713 53.9706 137.681 53.9478 137.655 53.9194C137.603 53.8597 137.574 53.7832 137.574 53.7041C137.574 53.6249 137.603 53.5484 137.655 53.4887Z" fill="black"/>
    <path d="M138.999 53.4888C139.023 53.4589 139.055 53.4351 139.09 53.4191C139.126 53.4031 139.165 53.3954 139.204 53.3966C139.241 53.3969 139.278 53.4053 139.311 53.4213C139.345 53.4372 139.375 53.4602 139.398 53.4888C139.428 53.5166 139.451 53.55 139.467 53.587C139.482 53.624 139.491 53.6639 139.491 53.7042C139.491 53.7444 139.482 53.7843 139.467 53.8213C139.451 53.8583 139.428 53.8917 139.398 53.9195C139.375 53.9481 139.345 53.9712 139.311 53.9871C139.278 54.003 139.241 54.0114 139.204 54.0118C139.165 54.013 139.126 54.0053 139.09 53.9893C139.055 53.9733 139.023 53.9495 138.999 53.9195C138.969 53.8917 138.946 53.8583 138.93 53.8213C138.914 53.7843 138.906 53.7444 138.906 53.7042C138.906 53.6639 138.914 53.624 138.93 53.587C138.946 53.55 138.969 53.5166 138.999 53.4888Z" fill="black"/>
    <path d="M140.381 53.4892C140.407 53.4606 140.439 53.4378 140.474 53.4222C140.51 53.4065 140.548 53.3984 140.586 53.3984C140.625 53.3984 140.663 53.4065 140.699 53.4222C140.734 53.4378 140.765 53.4606 140.791 53.4892C140.843 53.5489 140.872 53.6254 140.872 53.7046C140.872 53.7837 140.843 53.8602 140.791 53.9199C140.765 53.9485 140.734 53.9713 140.699 53.987C140.663 54.0026 140.625 54.0108 140.586 54.0108C140.548 54.0108 140.51 54.0026 140.474 53.987C140.439 53.9713 140.407 53.9485 140.381 53.9199C140.352 53.8921 140.329 53.8587 140.313 53.8217C140.297 53.7847 140.289 53.7448 140.289 53.7046C140.289 53.6643 140.297 53.6244 140.313 53.5874C140.329 53.5504 140.352 53.517 140.381 53.4892Z" fill="black"/>
  </g>
  <defs>
    <clipPath id="clip0_267_1289">
      <rect width="146.594" height="58" fill="white"/>
    </clipPath>
  </defs>
</svg>